<svg version="1.1" id="Layer_1" xmlns="http://www.w3.org/2000/svg" xmlns:xlink="http://www.w3.org/1999/xlink" x="0px" y="0px"
	 width="100%" viewBox="0 0 691 820" enable-background="new 0 0 691 820" xml:space="preserve">
<path fill="#FFFFFF" opacity="1.000000" stroke="none" 
	d="
M1.000000,295.000000 
	C1.000000,196.666672 1.000000,98.833336 1.000000,1.000000 
	C231.333328,1.000000 461.666656,1.000000 692.000000,1.000000 
	C692.000000,274.333344 692.000000,547.666687 692.000000,821.000000 
	C461.666656,821.000000 231.333328,821.000000 1.000000,821.000000 
	C1.000000,645.833313 1.000000,470.666656 1.000000,295.000000 
M315.409058,73.965714 
	C253.718521,96.726212 202.276352,133.759567 161.254791,185.123474 
	C115.497398,242.417236 90.503273,308.014191 85.276764,380.906525 
	C83.771278,401.903046 85.254059,423.149506 85.981400,444.260223 
	C86.687363,464.750580 90.767792,484.788330 95.996391,504.571686 
	C115.579529,578.667908 155.288391,639.953369 214.313919,688.588257 
	C249.402054,717.499573 289.012970,738.477722 332.485718,751.807129 
	C364.001038,761.470154 396.229218,767.186707 429.356628,767.029785 
	C457.186707,766.897949 485.017883,767.002686 512.848572,767.002686 
	C514.460999,767.002686 516.073425,767.002686 517.547668,767.002686 
	C517.788940,766.240417 517.966125,765.942017 517.966187,765.643677 
	C517.986450,697.817017 518.001160,629.990295 517.986511,562.163635 
	C517.985596,557.961670 512.684998,553.008240 508.303894,553.005188 
	C484.806122,552.988647 461.306641,553.156128 437.811676,552.898682 
	C430.935944,552.823303 423.935730,552.197510 417.227570,550.741455 
	C382.329041,543.166077 353.513641,525.652222 332.247528,496.702362 
	C307.925568,463.592621 299.262299,426.782959 306.935791,386.192688 
	C313.253204,352.775665 329.746277,325.342896 355.787720,303.914124 
	C381.680145,282.607971 411.905884,272.332367 445.421387,272.037506 
	C466.584381,271.851288 487.750397,272.010101 508.915039,271.997528 
	C514.306213,271.994324 517.998413,268.251190 517.998901,262.798187 
	C518.004761,194.138062 518.004333,125.477921 517.989929,56.817791 
	C517.989685,55.562439 517.798279,54.307125 517.691650,52.997238 
	C496.470459,52.997238 475.643402,52.998363 454.816345,52.996952 
	C430.089264,52.995274 405.378418,52.477932 380.830872,56.870998 
	C358.803589,60.813034 337.140259,65.882553 315.409058,73.965714 
z"/>
<path fill="#020101" opacity="1.000000" stroke="none" 
	d="
M315.792114,73.864395 
	C337.140259,65.882553 358.803589,60.813034 380.830872,56.870998 
	C405.378418,52.477932 430.089264,52.995274 454.816345,52.996952 
	C475.643402,52.998363 496.470459,52.997238 517.691650,52.997238 
	C517.798279,54.307125 517.989685,55.562439 517.989929,56.817791 
	C518.004333,125.477921 518.004761,194.138062 517.998901,262.798187 
	C517.998413,268.251190 514.306213,271.994324 508.915039,271.997528 
	C487.750397,272.010101 466.584381,271.851288 445.421387,272.037506 
	C411.905884,272.332367 381.680145,282.607971 355.787720,303.914124 
	C329.746277,325.342896 313.253204,352.775665 306.935791,386.192688 
	C299.262299,426.782959 307.925568,463.592621 332.247528,496.702362 
	C353.513641,525.652222 382.329041,543.166077 417.227570,550.741455 
	C423.935730,552.197510 430.935944,552.823303 437.811676,552.898682 
	C461.306641,553.156128 484.806122,552.988647 508.303894,553.005188 
	C512.684998,553.008240 517.985596,557.961670 517.986511,562.163635 
	C518.001160,629.990295 517.986450,697.817017 517.966187,765.643677 
	C517.966125,765.942017 517.788940,766.240417 517.547668,767.002686 
	C516.073425,767.002686 514.460999,767.002686 512.848572,767.002686 
	C485.017883,767.002686 457.186707,766.897949 429.356628,767.029785 
	C396.229218,767.186707 364.001038,761.470154 332.485718,751.807129 
	C289.012970,738.477722 249.402054,717.499573 214.313919,688.588257 
	C155.288391,639.953369 115.579529,578.667908 95.996391,504.571686 
	C90.767792,484.788330 86.687363,464.750580 85.981400,444.260223 
	C85.254059,423.149506 83.771278,401.903046 85.276764,380.906525 
	C90.503273,308.014191 115.497398,242.417236 161.254791,185.123474 
	C202.276352,133.759567 253.718521,96.726212 315.792114,73.864395 
M511.963470,620.070984 
	C511.963470,599.812988 511.963470,579.554993 511.963470,559.005127 
	C489.149628,559.005127 467.002808,558.821594 444.860962,559.074463 
	C431.746002,559.224243 419.010590,557.581665 406.373199,554.046692 
	C374.070435,545.010803 347.719940,527.052063 327.464508,500.613556 
	C314.091064,483.157776 305.526672,463.146545 301.119324,441.505615 
	C298.030457,426.338745 297.482178,410.938019 299.253906,395.668701 
	C301.577148,375.645660 308.083191,356.834442 318.267670,339.310608 
	C332.570190,314.701111 352.449188,296.076141 377.544495,282.803802 
	C399.701782,271.085297 423.522522,266.415710 448.299286,266.051788 
	C467.627563,265.767914 486.963348,265.994873 506.295776,265.994843 
	C508.067932,265.994843 509.840088,265.994873 511.832916,265.994873 
	C511.832916,243.257782 511.832916,221.128876 511.987366,198.152664 
	C511.935883,196.435074 511.884369,194.717468 511.963440,192.070831 
	C511.919891,171.714157 511.876373,151.357498 511.987823,130.176620 
	C511.936218,128.784088 511.884613,127.391563 511.963684,125.070122 
	C511.963684,102.814583 511.963684,80.559044 511.963684,58.180721 
	C510.327026,58.101067 509.345520,57.995743 508.366302,58.013958 
	C473.454010,58.663429 438.440857,55.957779 403.648529,60.154434 
	C386.044922,62.277779 368.359100,64.891190 351.181793,69.173645 
	C277.172791,87.624725 216.333023,127.300262 167.855728,185.895599 
	C146.382767,211.850357 129.480957,240.708435 116.542747,271.880585 
	C100.051781,311.612366 91.512138,353.076019 90.201111,395.924774 
	C89.674477,413.136932 90.636337,430.479492 92.202438,447.645813 
	C93.634743,463.345428 95.736694,479.138977 99.375664,494.455872 
	C116.803406,567.811462 154.321136,629.265625 211.282883,678.601624 
	C235.871643,699.898621 263.244232,717.085144 292.935303,730.596436 
	C338.196747,751.193176 385.754028,761.185181 435.314911,761.932800 
	C458.972412,762.289673 482.639740,761.994873 506.302612,761.995117 
	C508.073975,761.995178 509.845337,761.995117 511.833038,761.995117 
	C511.833038,740.922119 511.833038,720.461548 511.987823,699.152954 
	C511.936157,697.434998 511.884491,695.717102 511.963440,693.070190 
	C511.919922,671.046875 511.876404,649.023499 511.987366,626.152466 
	C511.935883,624.434998 511.884369,622.717468 511.963470,620.070984 
z"/>
<path fill="#DD1111" opacity="1.000000" stroke="none" 
	d="
M511.833038,700.000977 
	C511.833038,720.461548 511.833038,740.922119 511.833038,761.995117 
	C509.845337,761.995117 508.073975,761.995178 506.302612,761.995117 
	C482.639740,761.994873 458.972412,762.289673 435.314911,761.932800 
	C385.754028,761.185181 338.196747,751.193176 292.935303,730.596436 
	C263.244232,717.085144 235.871643,699.898621 211.282883,678.601624 
	C154.321136,629.265625 116.803406,567.811462 99.375664,494.455872 
	C95.736694,479.138977 93.634743,463.345428 92.202438,447.645813 
	C90.636337,430.479492 89.674477,413.136932 90.201111,395.924774 
	C91.512138,353.076019 100.051781,311.612366 116.542747,271.880585 
	C129.480957,240.708435 146.382767,211.850357 167.855728,185.895599 
	C216.333023,127.300262 277.172791,87.624725 351.181793,69.173645 
	C368.359100,64.891190 386.044922,62.277779 403.648529,60.154434 
	C438.440857,55.957779 473.454010,58.663429 508.366302,58.013958 
	C509.345520,57.995743 510.327026,58.101067 511.963684,58.180721 
	C511.963684,80.559044 511.963684,102.814583 511.441620,125.533234 
	C491.754425,125.996140 472.587891,126.139442 453.424530,125.955185 
	C434.381622,125.772079 415.490295,126.675674 396.637360,129.857925 
	C373.009552,133.846130 350.242676,140.571075 328.464752,150.301804 
	C286.682953,168.970535 251.003860,195.917419 222.093552,231.495346 
	C200.628204,257.911316 184.221054,287.282135 173.264450,319.508240 
	C163.056808,349.531433 157.352356,380.412781 158.019730,412.269531 
	C158.193192,420.549591 158.200089,428.874207 159.102600,437.088379 
	C160.480255,449.626862 161.852600,462.241669 164.502823,474.549377 
	C170.645569,503.076263 181.205521,529.973328 195.690674,555.393311 
	C214.093536,587.688416 238.114609,615.107483 267.017487,638.207886 
	C287.734802,654.766052 310.583710,667.893372 335.152008,678.081299 
	C368.382324,691.861267 403.012695,698.971069 438.840454,699.885315 
	C463.156494,700.505798 487.501160,700.002014 511.833038,700.000977 
z"/>
<path fill="#DD1111" opacity="1.000000" stroke="none" 
	d="
M511.832855,627.000183 
	C511.876404,649.023499 511.919922,671.046875 511.441437,693.533447 
	C487.759216,693.996521 464.586151,694.461670 441.443481,693.824646 
	C427.159943,693.431519 412.862305,691.815735 398.677643,689.941528 
	C372.092255,686.429016 346.940704,677.879211 322.866913,666.278809 
	C281.440643,646.316650 246.949661,617.833984 219.440460,580.945374 
	C182.150833,530.941833 163.868973,474.511383 163.452881,412.375305 
	C163.300781,389.664734 166.269211,367.179047 171.866409,344.999786 
	C187.141739,284.470428 218.987579,234.474762 266.907471,194.812561 
	C292.852325,173.338593 322.101868,157.402771 354.041290,146.485687 
	C373.254517,139.918472 392.992584,135.637726 413.079529,133.129913 
	C422.931519,131.899933 432.930786,131.540298 442.872131,131.397507 
	C465.856201,131.067322 488.845612,131.109604 511.832855,131.000824 
	C511.876373,151.357498 511.919891,171.714157 511.441467,192.534058 
	C483.290710,193.329987 455.642853,193.163193 428.041840,194.220230 
	C415.506866,194.700302 402.845245,196.681122 390.622375,199.585770 
	C356.397125,207.719116 326.100891,223.673950 299.468597,246.846191 
	C281.161285,262.775024 265.957214,281.135437 254.080658,302.138672 
	C232.888901,339.615417 222.595825,379.805725 226.058044,423.031586 
	C226.948486,434.148895 227.699341,445.430298 230.221008,456.238068 
	C242.176804,507.479889 268.363403,549.811707 310.424774,582.018433 
	C349.531219,611.962646 393.941620,626.150635 442.837402,626.939331 
	C465.830231,627.310181 488.834015,627.001160 511.832855,627.000183 
z"/>
<path fill="#DD1111" opacity="1.000000" stroke="none" 
	d="
M511.832916,198.999969 
	C511.832916,221.128876 511.832916,243.257782 511.832916,265.994873 
	C509.840088,265.994873 508.067932,265.994843 506.295776,265.994843 
	C486.963348,265.994873 467.627563,265.767914 448.299286,266.051788 
	C423.522522,266.415710 399.701782,271.085297 377.544495,282.803802 
	C352.449188,296.076141 332.570190,314.701111 318.267670,339.310608 
	C308.083191,356.834442 301.577148,375.645660 299.253906,395.668701 
	C297.482178,410.938019 298.030457,426.338745 301.119324,441.505615 
	C305.526672,463.146545 314.091064,483.157776 327.464508,500.613556 
	C347.719940,527.052063 374.070435,545.010803 406.373199,554.046692 
	C419.010590,557.581665 431.746002,559.224243 444.860962,559.074463 
	C467.002808,558.821594 489.149628,559.005127 511.963470,559.005127 
	C511.963470,579.554993 511.963470,599.812988 511.441467,620.534241 
	C492.928925,620.997314 474.938324,620.972107 456.947784,621.004333 
	C440.747009,621.033386 424.629120,620.784668 408.516754,618.165100 
	C387.562408,614.758423 367.608032,608.540710 348.691406,599.139282 
	C319.298706,584.531433 294.500732,564.318176 274.479431,538.104187 
	C247.900101,503.303802 233.922165,463.934845 231.141281,420.554749 
	C229.957047,402.081360 231.849884,383.697083 235.898056,365.515350 
	C247.127609,315.079559 272.952820,274.004059 313.943604,242.532486 
	C351.948425,213.353424 395.095551,199.258362 442.868591,199.022583 
	C465.856171,198.909119 488.844788,199.001038 511.832916,198.999969 
z"/>
<path fill="#FFFDFD" opacity="1.000000" stroke="none" 
	d="
M511.910339,130.588715 
	C488.845612,131.109604 465.856201,131.067322 442.872131,131.397507 
	C432.930786,131.540298 422.931519,131.899933 413.079529,133.129913 
	C392.992584,135.637726 373.254517,139.918472 354.041290,146.485687 
	C322.101868,157.402771 292.852325,173.338593 266.907471,194.812561 
	C218.987579,234.474762 187.141739,284.470428 171.866409,344.999786 
	C166.269211,367.179047 163.300781,389.664734 163.452881,412.375305 
	C163.868973,474.511383 182.150833,530.941833 219.440460,580.945374 
	C246.949661,617.833984 281.440643,646.316650 322.866913,666.278809 
	C346.940704,677.879211 372.092255,686.429016 398.677643,689.941528 
	C412.862305,691.815735 427.159943,693.431519 441.443481,693.824646 
	C464.586151,694.461670 487.759216,693.996521 511.376160,693.997925 
	C511.884491,695.717102 511.936157,697.434998 511.910431,699.576965 
	C487.501160,700.002014 463.156494,700.505798 438.840454,699.885315 
	C403.012695,698.971069 368.382324,691.861267 335.152008,678.081299 
	C310.583710,667.893372 287.734802,654.766052 267.017487,638.207886 
	C238.114609,615.107483 214.093536,587.688416 195.690674,555.393311 
	C181.205521,529.973328 170.645569,503.076263 164.502823,474.549377 
	C161.852600,462.241669 160.480255,449.626862 159.102600,437.088379 
	C158.200089,428.874207 158.193192,420.549591 158.019730,412.269531 
	C157.352356,380.412781 163.056808,349.531433 173.264450,319.508240 
	C184.221054,287.282135 200.628204,257.911316 222.093552,231.495346 
	C251.003860,195.917419 286.682953,168.970535 328.464752,150.301804 
	C350.242676,140.571075 373.009552,133.846130 396.637360,129.857925 
	C415.490295,126.675674 434.381622,125.772079 453.424530,125.955185 
	C472.587891,126.139442 491.754425,125.996140 511.376282,125.997696 
	C511.884613,127.391563 511.936218,128.784088 511.910339,130.588715 
z"/>
<path fill="#FFFDFD" opacity="1.000000" stroke="none" 
	d="
M511.910156,198.576324 
	C488.844788,199.001038 465.856171,198.909119 442.868591,199.022583 
	C395.095551,199.258362 351.948425,213.353424 313.943604,242.532486 
	C272.952820,274.004059 247.127609,315.079559 235.898056,365.515350 
	C231.849884,383.697083 229.957047,402.081360 231.141281,420.554749 
	C233.922165,463.934845 247.900101,503.303802 274.479431,538.104187 
	C294.500732,564.318176 319.298706,584.531433 348.691406,599.139282 
	C367.608032,608.540710 387.562408,614.758423 408.516754,618.165100 
	C424.629120,620.784668 440.747009,621.033386 456.947784,621.004333 
	C474.938324,620.972107 492.928925,620.997314 511.376190,620.998779 
	C511.884369,622.717468 511.935883,624.434998 511.910095,626.576294 
	C488.834015,627.001160 465.830231,627.310181 442.837402,626.939331 
	C393.941620,626.150635 349.531219,611.962646 310.424774,582.018433 
	C268.363403,549.811707 242.176804,507.479889 230.221008,456.238068 
	C227.699341,445.430298 226.948486,434.148895 226.058044,423.031586 
	C222.595825,379.805725 232.888901,339.615417 254.080658,302.138672 
	C265.957214,281.135437 281.161285,262.775024 299.468597,246.846191 
	C326.100891,223.673950 356.397125,207.719116 390.622375,199.585770 
	C402.845245,196.681122 415.506866,194.700302 428.041840,194.220230 
	C455.642853,193.163193 483.290710,193.329987 511.376160,192.998596 
	C511.884369,194.717468 511.935883,196.435074 511.910156,198.576324 
z"/>
</svg>